<svg width="177" height="32" viewBox="0 0 177 32" fill="none" xmlns="http://www.w3.org/2000/svg">
<g opacity="0.8">
<g clip-path="url(#clip0_1771_19959)">
<path d="M15.017 22.85C13.3637 24.2432 11.27 25.005 9.108 25C4.078 25 0 20.97 0 16C0 11.03 4.078 7.00002 9.108 7.00002C11.363 7.00002 13.426 7.81002 15.017 9.15002C16.67 7.75705 18.7633 6.99526 20.925 7.00002C25.955 7.00002 30.033 11.03 30.033 16C30.033 20.97 25.955 25 20.925 25C18.7633 25.0048 16.67 24.243 15.017 22.85Z" fill="#ED0006"/>
<path d="M15.017 22.85C16.0186 22.0115 16.8242 20.9636 17.377 19.7801C17.9299 18.5966 18.2166 17.3063 18.217 16C18.217 13.257 16.975 10.8 15.017 9.15002C16.67 7.75705 18.7633 6.99526 20.925 7.00002C25.955 7.00002 30.033 11.03 30.033 16C30.033 20.97 25.955 25 20.925 25C18.7633 25.0048 16.67 24.243 15.017 22.85Z" fill="#F9A000"/>
<path d="M15.017 22.85C16.975 21.2 18.217 18.743 18.217 16C18.217 13.257 16.975 10.8 15.017 9.15002C14.0154 9.98856 13.2098 11.0365 12.657 12.22C12.1041 13.4035 11.8174 14.6938 11.817 16C11.817 18.743 13.058 21.2 15.017 22.85Z" fill="#FF5E00"/>
</g>
<path fill-rule="evenodd" clip-rule="evenodd" d="M64.224 10L59.033 21.826H65.248L66.018 19.941H67.779L68.55 21.827H75.39V20.387L76 21.827H79.54L80.149 20.357V21.827H94.376L96.106 19.99L97.726 21.827L105.033 21.842L99.825 15.946L105.033 10H97.839L96.155 11.803L94.586 10H79.109L77.779 13.053L76.42 10H70.219V11.39L69.529 10H64.226H64.224ZM65.427 11.68H68.457L71.9 19.699V11.679H75.219L77.879 17.429L80.329 11.679H83.633V20.166H81.623L81.607 13.516L78.677 20.166H76.88L73.935 13.516V20.166H69.801L69.018 18.263H64.783L64.001 20.164H61.787L65.427 11.679V11.68ZM93.64 11.68H85.47V20.16H93.513L96.106 17.35L98.605 20.16H101.217L97.42 15.945L101.217 11.679H98.718L96.138 14.458L93.64 11.679V11.68ZM66.9 13.115L65.506 16.505H68.294L66.901 13.115H66.9ZM87.487 14.985V13.435H92.585L94.809 15.912L92.486 18.404H87.487V16.712H91.944V14.986H87.487V14.985Z" fill="#016FD0"/>
<g clip-path="url(#clip1_1771_19959)">
<path d="M161.515 9.00008C162.56 8.99548 163.596 9.19135 164.567 9.57708L164.104 12.5031L163.796 12.3601C163.003 11.9927 162.136 11.8147 161.262 11.8401C159.919 11.8401 159.316 12.4311 159.302 13.0081C159.302 13.6431 160.032 14.0611 161.222 14.6811C163.182 15.6471 164.09 16.8291 164.077 18.3711C164.049 21.1841 161.725 23.0001 158.155 23.0001C156.629 22.9851 155.159 22.6531 154.361 22.2791L154.837 19.2361L155.285 19.4531C156.391 19.9581 157.119 20.1731 158.477 20.1731C159.457 20.1731 160.507 19.7551 160.52 18.8481C160.52 18.2561 160.073 17.8241 158.757 17.1601C157.469 16.5111 155.747 15.4301 155.775 13.4841C155.789 10.8451 158.155 9.00008 161.515 9.00008ZM148.831 22.7981H152.233L154.361 9.24608H150.959L148.831 22.7981Z" fill="#00579F"/>
<path fill-rule="evenodd" clip-rule="evenodd" d="M173.288 9.24608H170.657C169.845 9.24608 169.229 9.49108 168.878 10.3701L163.825 22.7981H167.395L168.109 20.7651H172.477C172.575 21.2411 172.883 22.7981 172.883 22.7981H176.033L173.288 9.24608ZM169.088 17.9961L170.448 14.2061C170.441 14.2161 170.486 14.0901 170.552 13.9011C170.65 13.6211 170.795 13.2081 170.895 12.9081L171.132 14.0751C171.132 14.0751 171.777 17.3191 171.917 17.9971H169.089L169.088 17.9961Z" fill="#00579F"/>
<path d="M142.657 18.4871L145.989 9.24608H149.587L144.239 22.7841H140.641L137.589 10.9321C139.745 12.1001 141.677 14.4501 142.293 16.6121L142.657 18.4871Z" fill="#00579F"/>
<path d="M139.563 9.24608H134.089L134.033 9.51908C138.303 10.6441 141.131 13.3551 142.293 16.6131L141.103 10.3851C140.907 9.51908 140.305 9.27508 139.563 9.24508V9.24608Z" fill="#FAA61A"/>
</g>
<rect x="0.032959" width="176.033" height="32.0001" fill="black" style="mix-blend-mode:saturation"/>
</g>
<defs>
<clipPath id="clip0_1771_19959">
<rect width="30.033" height="32" fill="white"/>
</clipPath>
<clipPath id="clip1_1771_19959">
<rect width="42" height="32.0001" fill="white" transform="translate(134.033)"/>
</clipPath>
</defs>
</svg>
